<svg width="182" height="133" viewBox="0 0 182 133" fill="none" xmlns="http://www.w3.org/2000/svg">
<g opacity="0.8" clip-path="url(#clip0_2234_9590)">
<path d="M5.7437 39.0756C5.74249 40.5478 4.63381 41.651 3.15677 41.6498C1.67973 41.6485 0.572853 40.5435 0.57406 39.0714C0.575267 37.5992 1.68395 36.496 3.16099 36.4972C4.63803 36.4984 5.7448 37.7261 5.7437 39.0756Z" fill="#FFCF2D"/>
<path d="M27.7764 39.0942C27.7752 40.5663 26.6665 41.6695 25.1895 41.6683C23.7124 41.6671 22.6056 40.5621 22.6068 39.0899C22.608 37.6178 23.7167 36.5146 25.1937 36.5158C26.5477 36.5169 27.7775 37.7447 27.7764 39.0942Z" fill="#FFCF2D"/>
<path d="M49.6851 39.1117C49.6839 40.5839 48.5752 41.6871 47.0982 41.6859C45.6211 41.6847 44.5143 40.5797 44.5155 39.1075C44.5167 37.6354 45.6254 36.5322 47.1024 36.5334C48.5794 36.5346 49.6862 37.7623 49.6851 39.1117Z" fill="#FFCF2D"/>
<path d="M71.7178 39.1303C71.7166 40.6024 70.6079 41.7057 69.1309 41.7044C67.6539 41.7032 66.547 40.5982 66.5482 39.1261C66.5494 37.6539 67.6581 36.5507 69.1351 36.5519C70.6122 36.5531 71.7189 37.7808 71.7178 39.1303Z" fill="#FFCF2D"/>
<path d="M93.7505 39.1479C93.7493 40.62 92.6406 41.7232 91.1636 41.722C89.6866 41.7208 88.5797 40.6158 88.5809 39.1436C88.5821 37.6715 89.6908 36.5683 91.1678 36.5695C92.5218 36.5706 93.7516 37.7984 93.7505 39.1479Z" fill="#FFCF2D"/>
<path d="M115.783 39.1664C115.782 40.6386 114.673 41.7418 113.196 41.7406C111.719 41.7394 110.612 40.6343 110.614 39.1622C110.615 37.69 111.724 36.5868 113.201 36.5881C114.678 36.5893 115.784 37.817 115.783 39.1664Z" fill="#FFCF2D"/>
<path d="M137.692 39.184C137.691 40.6562 136.583 41.7594 135.106 41.7582C133.628 41.7569 132.522 40.6519 132.523 39.1798C132.524 37.7076 133.633 36.6044 135.11 36.6056C136.587 36.6068 137.694 37.8345 137.692 39.184Z" fill="#FFCF2D"/>
<path d="M159.725 39.2016C159.724 40.6737 158.615 41.7769 157.138 41.7757C155.661 41.7745 154.554 40.6695 154.556 39.1974C154.557 37.7252 155.665 36.622 157.142 36.6232C158.619 36.6244 159.726 37.8521 159.725 39.2016Z" fill="#FFCF2D"/>
<path d="M181.757 39.2201C181.756 40.6923 180.647 41.7955 179.17 41.7943C177.693 41.7931 176.587 40.6881 176.588 39.2159C176.589 37.7438 177.698 36.6406 179.175 36.6418C180.529 36.6429 181.758 37.8707 181.757 39.2201Z" fill="#FFCF2D"/>
<path d="M5.72856 57.3549C5.72735 58.8271 4.61867 59.9303 3.14163 59.9291C1.66459 59.9278 0.557716 58.8228 0.558923 57.3507C0.56013 55.8785 1.66881 54.7753 3.14585 54.7765C4.62289 54.7777 5.72977 55.8828 5.72856 57.3549Z" fill="#FFCF2D"/>
<path d="M27.7613 57.3725C27.7601 58.8446 26.6514 59.9478 25.1743 59.9466C23.6973 59.9454 22.5904 58.8404 22.5916 57.3683C22.5928 55.8961 23.7015 54.7929 25.1786 54.7941C26.5325 54.7952 27.7625 55.9003 27.7613 57.3725Z" fill="#FFCF2D"/>
<path d="M49.6705 57.391C49.6692 58.8632 48.5606 59.9664 47.0835 59.9652C45.6065 59.964 44.4996 58.859 44.5008 57.3868C44.502 55.9147 45.6107 54.8115 47.0877 54.8127C48.5648 54.8139 49.6717 55.9189 49.6705 57.391Z" fill="#FFCF2D"/>
<path d="M71.7032 57.4086C71.702 58.8808 70.5933 59.984 69.1162 59.9828C67.6392 59.9816 66.5323 58.8765 66.5335 57.4044C66.5347 55.9322 67.6434 54.829 69.1205 54.8302C70.5975 54.8315 71.7044 55.9365 71.7032 57.4086Z" fill="#FFCF2D"/>
<path d="M93.7354 57.4272C93.7342 58.8993 92.6255 60.0025 91.1485 60.0013C89.6714 60.0001 88.5646 58.8951 88.5658 57.4229C88.567 55.9508 89.6756 54.8476 91.1527 54.8488C92.5066 54.8499 93.7366 55.955 93.7354 57.4272Z" fill="#FFCF2D"/>
<path d="M115.768 57.4448C115.767 58.9169 114.658 60.0201 113.181 60.0189C111.704 60.0177 110.597 58.9127 110.598 57.4405C110.6 55.9684 111.708 54.8652 113.185 54.8664C114.662 54.8676 115.769 55.9726 115.768 57.4448Z" fill="#FFCF2D"/>
<path d="M137.677 57.4633C137.676 58.9355 136.567 60.0387 135.09 60.0375C133.613 60.0362 132.506 58.9312 132.508 57.4591C132.509 55.9869 133.618 54.8837 135.095 54.8849C136.572 54.8861 137.678 55.9912 137.677 57.4633Z" fill="#FFCF2D"/>
<path d="M159.71 57.4809C159.709 58.953 158.6 60.0562 157.123 60.055C155.646 60.0538 154.539 58.9488 154.54 57.4767C154.542 56.0045 155.65 54.9013 157.127 54.9025C158.604 54.9037 159.711 56.0087 159.71 57.4809Z" fill="#FFCF2D"/>
<path d="M181.743 57.4994C181.742 58.9716 180.633 60.0748 179.156 60.0736C177.679 60.0724 176.572 58.9674 176.573 57.4952C176.574 56.0231 177.683 54.9199 179.16 54.9211C180.514 54.9222 181.744 56.0273 181.743 57.4994Z" fill="#FFCF2D"/>
<path d="M5.77348 2.64007C5.77228 4.11222 4.66359 5.21542 3.18655 5.21421C1.70951 5.213 0.602638 4.10798 0.603845 2.63583C0.605052 1.16368 1.71374 0.0604786 3.19078 0.0616896C4.66782 0.0629005 5.77469 1.16792 5.77348 2.64007Z" fill="#FFCF2D"/>
<path d="M27.8062 2.65765C27.805 4.1298 26.6963 5.233 25.2193 5.23179C23.7422 5.23058 22.6354 4.12556 22.6366 2.65341C22.6378 1.18126 23.7465 0.0780567 25.2235 0.0792677C26.5774 0.0803778 27.8074 1.1855 27.8062 2.65765Z" fill="#FFCF2D"/>
<path d="M49.7154 2.6762C49.7142 4.14835 48.6055 5.25155 47.1284 5.25034C45.6514 5.24913 44.5445 4.14411 44.5457 2.67196C44.5469 1.19981 45.7787 0.0967123 47.1327 0.0978224C48.6097 0.0990334 49.7166 1.20405 49.7154 2.6762Z" fill="#FFCF2D"/>
<path d="M71.7476 2.69378C71.7464 4.16593 70.6377 5.26913 69.1607 5.26792C67.6836 5.26671 66.5768 4.16169 66.578 2.68954C66.5792 1.21739 67.8109 0.11429 69.1649 0.1154C70.5189 0.116511 71.7488 1.22163 71.7476 2.69378Z" fill="#FFCF2D"/>
<path d="M93.7803 2.71233C93.7791 4.18448 92.6704 5.28769 91.1934 5.28647C89.7163 5.28526 88.6095 4.18024 88.6107 2.7081C88.6119 1.23595 89.7206 0.132744 91.1976 0.133955C92.5516 0.135065 93.7815 1.24019 93.7803 2.71233Z" fill="#FFCF2D"/>
<path d="M115.813 2.72991C115.812 4.20206 114.703 5.30526 113.226 5.30405C111.749 5.30284 110.642 4.19782 110.643 2.72567C110.645 1.25353 111.753 0.150322 113.23 0.151533C114.707 0.152744 115.814 1.25776 115.813 2.72991Z" fill="#FFCF2D"/>
<path d="M137.722 2.74847C137.721 4.22062 136.612 5.32382 135.135 5.32261C133.658 5.3214 132.551 4.21638 132.553 2.74423C132.554 1.27208 133.662 0.168877 135.14 0.170088C136.617 0.171299 137.723 1.27632 137.722 2.74847Z" fill="#FFCF2D"/>
<path d="M159.755 2.76605C159.754 4.23819 158.645 5.3414 157.168 5.34019C155.691 5.33897 154.584 4.23396 154.585 2.76181C154.586 1.28966 155.695 0.186455 157.172 0.187666C158.649 0.188877 159.756 1.2939 159.755 2.76605Z" fill="#FFCF2D"/>
<path d="M181.787 2.7846C181.786 4.25675 180.677 5.35995 179.2 5.35874C177.723 5.35753 176.616 4.25251 176.618 2.78036C176.619 1.30821 177.727 0.20501 179.204 0.206221C180.558 0.207331 181.788 1.31245 181.787 2.7846Z" fill="#FFCF2D"/>
<path d="M5.75835 20.9194C5.75714 22.3915 4.64846 23.4947 3.17142 23.4935C1.69438 23.4923 0.587602 22.2646 0.588708 20.9151C0.589915 19.443 1.6986 18.3398 3.17564 18.341C4.65268 18.3422 5.75955 19.4472 5.75835 20.9194Z" fill="#FFCF2D"/>
<path d="M27.7911 20.9369C27.7899 22.4091 26.6812 23.5123 25.2041 23.5111C23.7271 23.5099 22.6202 22.4049 22.6214 20.9327C22.6226 19.4606 23.7313 18.3574 25.2084 18.3586C26.5623 18.3597 27.7923 19.4648 27.7911 20.9369Z" fill="#FFCF2D"/>
<path d="M49.7002 20.9555C49.699 22.4276 48.5903 23.5308 47.1133 23.5296C45.6363 23.5284 44.5294 22.4234 44.5306 20.9513C44.5318 19.4791 45.6405 18.3759 47.1175 18.3771C48.5946 18.3783 49.7014 19.4834 49.7002 20.9555Z" fill="#FFCF2D"/>
<path d="M71.733 20.9731C71.7317 22.4452 70.6231 23.5484 69.146 23.5472C67.669 23.546 66.5621 22.441 66.5633 20.9688C66.5645 19.4967 67.6732 18.3935 69.1503 18.3947C70.6273 18.3959 71.7342 19.5009 71.733 20.9731Z" fill="#FFCF2D"/>
<path d="M93.7657 20.9916C93.7645 22.4638 92.6558 23.567 91.1787 23.5658C89.7017 23.5646 88.5948 22.4595 88.596 20.9874C88.5972 19.5152 89.7059 18.412 91.183 18.4133C92.5369 18.4144 93.7669 19.5195 93.7657 20.9916Z" fill="#FFCF2D"/>
<path d="M115.798 21.0092C115.797 22.4814 114.688 23.5846 113.211 23.5833C111.734 23.5821 110.627 22.4771 110.628 21.005C110.629 19.5328 111.738 18.4296 113.215 18.4308C114.692 18.432 115.799 19.5371 115.798 21.0092Z" fill="#FFCF2D"/>
<path d="M137.707 21.0278C137.706 22.4999 136.597 23.6031 135.12 23.6019C133.643 23.6007 132.536 22.4957 132.537 21.0235C132.539 19.5514 133.647 18.4482 135.124 18.4494C136.601 18.4506 137.708 19.5556 137.707 21.0278Z" fill="#FFCF2D"/>
<path d="M159.74 21.0453C159.739 22.5175 158.63 23.6207 157.153 23.6195C155.676 23.6183 154.569 22.5133 154.57 21.0411C154.571 19.569 155.68 18.4658 157.157 18.467C158.634 18.4682 159.741 19.5732 159.74 21.0453Z" fill="#FFCF2D"/>
<path d="M181.772 21.0639C181.771 22.536 180.663 23.6392 179.186 23.638C177.709 23.6368 176.602 22.5318 176.603 21.0597C176.604 19.5875 177.713 18.4843 179.19 18.4855C180.544 18.4866 181.774 19.5917 181.772 21.0639Z" fill="#FFCF2D"/>
<path d="M5.71391 75.5112C5.71271 76.9833 4.60402 78.0865 3.12698 78.0853C1.64994 78.0841 0.543068 76.9791 0.544274 75.5069C0.545481 74.0348 1.65417 72.9316 3.13121 72.9328C4.60825 72.934 5.71502 74.1617 5.71391 75.5112Z" fill="#FFCF2D"/>
<path d="M27.7461 75.5297C27.7449 77.0019 26.6362 78.1051 25.1592 78.1038C23.6822 78.1026 22.5753 76.9976 22.5765 75.5255C22.5777 74.0533 23.6864 72.9501 25.1634 72.9513C26.5174 72.9524 27.7472 74.1802 27.7461 75.5297Z" fill="#FFCF2D"/>
<path d="M49.6553 75.5473C49.6541 77.0194 48.5454 78.1226 47.0684 78.1214C45.5913 78.1202 44.4845 77.0152 44.4857 75.5431C44.4869 74.0709 45.5956 72.9677 47.0726 72.9689C48.5496 72.9701 49.6564 74.1978 49.6553 75.5473Z" fill="#FFCF2D"/>
<path d="M71.688 75.5658C71.6868 77.038 70.5782 78.1412 69.1011 78.14C67.6241 78.1388 66.5172 77.0338 66.5184 75.5616C66.5196 74.0895 67.6283 72.9863 69.1053 72.9875C70.5824 72.9887 71.6891 74.2164 71.688 75.5658Z" fill="#FFCF2D"/>
<path d="M93.7207 75.5834C93.7195 77.0556 92.6109 78.1588 91.1338 78.1576C89.6568 78.1564 88.5499 77.0513 88.5511 75.5792C88.5523 74.107 89.661 73.0038 91.138 73.005C92.492 73.0062 93.7219 74.234 93.7207 75.5834Z" fill="#FFCF2D"/>
<path d="M115.753 75.602C115.752 77.0741 114.644 78.1773 113.167 78.1761C111.689 78.1749 110.583 77.0699 110.584 75.5977C110.585 74.1256 111.694 73.0224 113.171 73.0236C114.648 73.0248 115.755 74.2525 115.753 75.602Z" fill="#FFCF2D"/>
<path d="M137.662 75.6196C137.661 77.0917 136.552 78.1949 135.075 78.1937C133.598 78.1925 132.491 77.0875 132.493 75.6153C132.494 74.1432 133.602 73.04 135.079 73.0412C136.556 73.0424 137.663 74.2701 137.662 75.6196Z" fill="#FFCF2D"/>
<path d="M159.695 75.6381C159.694 77.1103 158.585 78.2135 157.108 78.2123C155.631 78.211 154.524 77.106 154.525 75.6339C154.526 74.1617 155.635 73.0585 157.112 73.0597C158.589 73.0609 159.696 74.2886 159.695 75.6381Z" fill="#FFCF2D"/>
<path d="M181.728 75.6557C181.726 77.1278 180.618 78.231 179.141 78.2298C177.664 78.2286 176.557 77.1236 176.558 75.6515C176.559 74.1793 177.668 73.0761 179.145 73.0773C180.499 73.0784 181.729 74.3062 181.728 75.6557Z" fill="#FFCF2D"/>
<path d="M5.69878 93.7905C5.69757 95.2626 4.58888 96.3658 3.11184 96.3646C1.63481 96.3634 0.527931 95.2584 0.529138 93.7862C0.530345 92.3141 1.63903 91.2109 3.11607 91.2121C4.59311 91.2133 5.69998 92.3183 5.69878 93.7905Z" fill="#FFCF2D"/>
<path d="M27.7315 93.809C27.7303 95.2812 26.6216 96.3844 25.1446 96.3831C23.6675 96.3819 22.5606 95.2769 22.5619 93.8048C22.5631 92.3326 23.6717 91.2294 25.1488 91.2306C26.5027 91.2317 27.7327 92.3369 27.7315 93.809Z" fill="#FFCF2D"/>
<path d="M49.6407 93.8266C49.6395 95.2987 48.5308 96.4019 47.0537 96.4007C45.5767 96.3995 44.4698 95.2945 44.471 93.8223C44.4722 92.3502 45.5809 91.247 47.058 91.2482C48.535 91.2494 49.6419 92.3544 49.6407 93.8266Z" fill="#FFCF2D"/>
<path d="M69.086 96.4183C70.5135 96.4195 71.6717 95.267 71.6729 93.8442C71.6741 92.4213 70.5177 91.267 69.0902 91.2658C67.6626 91.2646 66.5044 92.4171 66.5033 93.8399C66.5021 95.2628 67.6584 96.4171 69.086 96.4183Z" fill="#FFCF2D"/>
<path d="M93.7056 93.8627C93.7044 95.3349 92.5957 96.4381 91.1187 96.4368C89.6416 96.4356 88.5348 95.3306 88.536 93.8585C88.5372 92.3863 89.6459 91.2831 91.1229 91.2843C92.4769 91.2855 93.7068 92.3906 93.7056 93.8627Z" fill="#FFCF2D"/>
<path d="M115.738 93.8803C115.737 95.3524 114.628 96.4556 113.151 96.4544C111.674 96.4532 110.567 95.3482 110.569 93.8761C110.57 92.4039 111.679 91.3007 113.156 91.3019C114.633 91.3031 115.74 92.4082 115.738 93.8803Z" fill="#FFCF2D"/>
<path d="M137.648 93.8989C137.646 95.371 136.538 96.4742 135.061 96.473C133.584 96.4718 132.477 95.3668 132.478 93.8946C132.479 92.4225 133.588 91.3193 135.065 91.3205C136.542 91.3217 137.649 92.4267 137.648 93.8989Z" fill="#FFCF2D"/>
<path d="M157.093 96.4906C158.521 96.4917 159.679 95.3393 159.68 93.9164C159.681 92.4936 158.525 91.3392 157.098 91.3381C155.67 91.3369 154.512 92.4894 154.511 93.9122C154.509 95.335 155.666 96.4894 157.093 96.4906Z" fill="#FFCF2D"/>
<path d="M181.712 93.935C181.711 95.4071 180.603 96.5103 179.126 96.5091C177.648 96.5079 176.542 95.4029 176.543 93.9307C176.544 92.4586 177.653 91.3554 179.13 91.3566C180.484 91.3577 181.714 92.4628 181.712 93.935Z" fill="#FFCF2D"/>
<path d="M5.68364 112.07C5.68243 113.542 4.57375 114.645 3.09671 114.644C1.61967 114.643 0.512794 113.538 0.514001 112.066C0.515208 110.593 1.62389 109.49 3.10093 109.491C4.57797 109.493 5.68485 110.598 5.68364 112.07Z" fill="#FFCF2D"/>
<path d="M27.7164 112.088C27.7151 113.56 26.6065 114.664 25.1294 114.662C23.6524 114.661 22.5455 113.556 22.5467 112.084C22.5479 110.612 23.6566 109.509 25.1336 109.51C26.4876 109.511 27.7176 110.616 27.7164 112.088Z" fill="#FFCF2D"/>
<path d="M49.6255 112.106C49.6243 113.578 48.5156 114.681 47.0386 114.68C45.5616 114.679 44.4547 113.574 44.4559 112.102C44.4571 110.63 45.5658 109.526 47.0428 109.528C48.5199 109.529 49.6267 110.634 49.6255 112.106Z" fill="#FFCF2D"/>
<path d="M71.6583 112.123C71.657 113.596 70.5484 114.699 69.0713 114.698C67.5943 114.696 66.4874 113.591 66.4886 112.119C66.4898 110.647 67.5985 109.544 69.0755 109.545C70.5526 109.546 71.6595 110.651 71.6583 112.123Z" fill="#FFCF2D"/>
<path d="M93.6905 112.142C93.6893 113.614 92.5806 114.717 91.1035 114.716C89.6265 114.715 88.5196 113.61 88.5208 112.138C88.522 110.666 89.6307 109.562 91.1078 109.564C92.4617 109.565 93.6917 110.67 93.6905 112.142Z" fill="#FFCF2D"/>
<path d="M115.723 112.16C115.722 113.632 114.613 114.735 113.136 114.734C111.659 114.733 110.552 113.628 110.554 112.155C110.555 110.683 111.663 109.58 113.14 109.581C114.618 109.582 115.724 110.687 115.723 112.16Z" fill="#FFCF2D"/>
<path d="M137.632 112.178C137.631 113.65 136.522 114.754 135.045 114.752C133.568 114.751 132.462 113.646 132.463 112.174C132.464 110.702 133.573 109.599 135.05 109.6C136.527 109.601 137.634 110.706 137.632 112.178Z" fill="#FFCF2D"/>
<path d="M159.665 112.196C159.664 113.668 158.555 114.771 157.078 114.77C155.601 114.769 154.494 113.664 154.495 112.192C154.497 110.719 155.605 109.616 157.082 109.617C158.559 109.619 159.666 110.724 159.665 112.196Z" fill="#FFCF2D"/>
<path d="M181.698 112.214C181.697 113.686 180.588 114.79 179.111 114.788C177.634 114.787 176.527 113.682 176.528 112.21C176.529 110.738 177.638 109.635 179.115 109.636C180.469 109.637 181.699 110.742 181.698 112.214Z" fill="#FFCF2D"/>
<path d="M5.66899 130.226C5.66778 131.698 4.5591 132.801 3.08206 132.8C1.60502 132.799 0.498146 131.694 0.499353 130.222C0.50056 128.75 1.60924 127.646 3.08628 127.648C4.56332 127.649 5.6701 128.877 5.66899 130.226Z" fill="#FFCF2D"/>
<path d="M27.7017 130.245C27.7005 131.717 26.5918 132.82 25.1148 132.819C23.6377 132.817 22.5309 131.712 22.5321 130.24C22.5333 128.768 23.642 127.665 25.119 127.666C26.473 127.667 27.7028 128.895 27.7017 130.245Z" fill="#FFCF2D"/>
<path d="M49.6104 130.262C49.6092 131.734 48.5005 132.837 47.0235 132.836C45.5464 132.835 44.4396 131.73 44.4408 130.258C44.442 128.786 45.5506 127.683 47.0277 127.684C48.5047 127.685 49.6115 128.913 49.6104 130.262Z" fill="#FFCF2D"/>
<path d="M71.6431 130.281C71.6419 131.753 70.5332 132.856 69.0562 132.855C67.5791 132.854 66.4723 131.749 66.4735 130.276C66.4747 128.804 67.5834 127.701 69.0604 127.702C70.5375 127.704 71.6442 128.931 71.6431 130.281Z" fill="#FFCF2D"/>
<path d="M93.6758 130.298C93.6746 131.77 92.5659 132.874 91.0889 132.872C89.6119 132.871 88.505 131.766 88.5062 130.294C88.5074 128.822 89.6161 127.719 91.0931 127.72C92.4471 127.721 93.6769 128.949 93.6758 130.298Z" fill="#FFCF2D"/>
<path d="M115.709 130.317C115.707 131.789 114.599 132.892 113.122 132.891C111.645 132.89 110.538 131.785 110.539 130.313C110.54 128.84 111.649 127.737 113.126 127.738C114.603 127.74 115.71 128.967 115.709 130.317Z" fill="#FFCF2D"/>
<path d="M137.618 130.334C137.617 131.807 136.508 132.91 135.031 132.909C133.554 132.907 132.447 131.802 132.448 130.33C132.449 128.858 133.558 127.755 135.035 127.756C136.512 127.757 137.619 128.985 137.618 130.334Z" fill="#FFCF2D"/>
<path d="M159.65 130.353C159.649 131.825 158.54 132.928 157.063 132.927C155.586 132.926 154.479 131.821 154.48 130.349C154.482 128.877 155.59 127.773 157.067 127.775C158.544 127.776 159.651 129.003 159.65 130.353Z" fill="#FFCF2D"/>
<path d="M181.683 130.371C181.681 131.843 180.573 132.946 179.096 132.945C177.619 132.943 176.512 131.838 176.513 130.366C176.514 128.894 177.623 127.791 179.1 127.792C180.454 127.793 181.684 129.021 181.683 130.371Z" fill="#FFCF2D"/>
</g>
<defs>
<clipPath id="clip0_2234_9590">
<rect width="181.184" height="132.739" fill="white" transform="translate(0.605957 0.0595703) rotate(0.0469756)"/>
</clipPath>
</defs>
</svg>
